# xmcd CD database file generated by OrangeCD 5.2
#
# Track frame offsets:
#	150
#	22335
#	41913
#	62335
#	82714
#	101138
#	131148
#	148580
#	164375
#	182928
#	199888
#	221448
#	244082
#	258834
#	286570
#	305301
#	321662
#
# Disc length: 4546 seconds
#
# Revision: 0
# Processed by: cddbd v1.5.2PL0 Copyright (c) Steve Scherf et al.
# Submitted via: OrangeCD 5.2
#
DISCID=fa11c011
DTITLE=Various Artist - Smooth Duets
DYEAR=2006
DGENRE=Dance R&B
TTITLE0=Patti LaBelle and Michael McDonald - On My Own
TTITLE1=Rod Stewart and The Temptations - The Motown Song
TTITLE2=Ruby Turner and The Temptations - Just My Imagination
TTITLE3=Diana Ross and Lional Richie - Endless Love
TTITLE4=Kenny G and Michael Bolton - You Send Me
TTITLE5=B.B. King and Eric Clapton - Rock Me Baby
TTITLE6=Roy Orbison and K.D. Lang - Crying
TTITLE7=Nat King Cole and Natalie Cole - Unforegettable
TTITLE8=Julio Iglesias and Diana Ross - All Of You
TTITLE9=Michael Jackson and Paul McCartney - The Girl Is Mine
TTITLE10=Aretha Franklin and Four Tops - If Ever A Love There Was
TTITLE11=Kenny G and Babyface - Every Time I Close My Eyes
TTITLE12=Diana Ross and The Temptations - My Guy My Girl
TTITLE13=The Manhattan Transfer and Ruth Brown - The Thrill Is Gone
TTITLE14=Kenny G and David Benoit - Don't Know Why
TTITLE15=Elton John and Paul Young - I'm Your Puppet
TTITLE16=Dionne Warwick, Elton John, Gladys Knight and Stevie Wonder - That's Wha
TTITLE16=t Friends Are For
EXTD=
EXTT0=
EXTT1=
EXTT2=
EXTT3=
EXTT4=
EXTT5=
EXTT6=
EXTT7=
EXTT8=
EXTT9=
EXTT10=
EXTT11=
EXTT12=
EXTT13=
EXTT14=
EXTT15=
EXTT16=
PLAYORDER=
